<svg version="1.1" id="Layer_1" xmlns="http://www.w3.org/2000/svg" xmlns:xlink="http://www.w3.org/1999/xlink" x="0px" y="0px" width="100%" viewBox="0 0 256 256" enable-background="new 0 0 256 256" xml:space="preserve">

<path fill="#E10D05" opacity="1.000000" stroke="none" d="
M120.314316,7.010995 
	C144.985107,6.008493 167.899719,10.766250 188.873077,23.089321 
	C195.885422,27.209482 202.396164,32.277512 208.768936,37.371704 
	C220.585907,46.817787 229.865662,58.685730 236.292465,72.153831 
	C241.429031,82.918098 244.793549,94.661087 247.780441,106.269226 
	C249.640503,113.498169 249.627960,121.273895 249.902313,128.824341 
	C250.103851,134.371002 249.407593,139.950272 249.099350,145.742126 
	C201.953018,145.742126 155.369980,145.742126 108.000084,145.742126 
	C108.000084,143.838379 108.000084,141.922363 108.000084,140.006332 
	C108.000084,98.197472 108.090279,56.388172 107.885742,14.580317 
	C107.860214,9.363865 109.158379,7.185311 114.545319,7.912059 
	C116.239876,8.140670 118.072624,7.344943 120.314316,7.010995 
z" data-index="1" style="visibility: visible; opacity: 1;"></path>
<path fill="#E10D05" opacity="1.000000" stroke="none" d="
M179.884430,238.982834 
	C160.768005,247.653503 141.020737,250.872375 120.524559,249.970535 
	C117.245270,249.826233 113.845421,249.745117 110.776382,248.769485 
	C109.483437,248.358459 108.139328,245.711182 108.119278,244.064606 
	C107.922569,227.905029 108.000275,211.742111 108.000114,195.580139 
	C108.000023,186.609833 108.000092,177.639542 108.000092,168.337067 
	C153.097519,168.337067 197.828644,168.337067 243.465073,168.337067 
	C231.913849,200.817230 210.334488,223.629547 179.884430,238.982834 
z" data-index="2" style="opacity: 1;"></path>
<path fill="#E10D05" opacity="1.000000" stroke="none" d="
M16.043547,82.159752 
	C22.543034,67.430710 30.669420,54.199444 41.970436,43.112358 
	C44.848560,40.288715 47.917583,37.659657 51.569004,34.330162 
	C51.569004,71.873192 51.569004,108.536789 51.569004,145.600784 
	C37.388874,145.600784 23.013741,145.600784 8.326573,145.600784 
	C4.992610,123.873756 7.817702,102.897575 16.043547,82.159752 
z" data-index="3" style="visibility: visible; opacity: 1;"></path>
<path fill="#E10D05" opacity="1.000000" stroke="none" d="
M42.736237,215.293671 
	C36.661407,207.543060 30.288460,200.403839 25.201910,192.442734 
	C20.512207,185.102722 17.203852,176.880142 12.905592,168.283371 
	C26.666878,168.283371 39.048443,168.283371 51.715466,168.283371 
	C51.715466,186.177200 51.715466,203.882187 51.715466,222.334305 
	C48.508160,219.836700 45.753628,217.691681 42.736237,215.293671 
z" data-index="4" style="visibility: visible;"></path>
</svg>