<svg xmlns="http://www.w3.org/2000/svg" xmlns:xlink="http://www.w3.org/1999/xlink" version="1.1" id="Layer_1" x="0px" y="0px" enable-background="new 0 0 320 320" xml:space="preserve" viewBox="16.76 55.69 288.4 210.06">

<path fill="#343F49" opacity="1.000000" stroke="none" d=" M110.759682,233.428650   C130.984039,235.819717 149.048370,231.608261 165.008240,219.819412   C158.260605,212.730789 151.956390,205.904434 145.423553,199.304382   C139.338211,193.156448 132.924194,187.333176 126.864586,181.161087   C125.738281,180.013870 125.102661,177.892456 125.093338,176.215897   C124.977531,155.389450 125.012383,134.562103 125.045525,113.735054   C125.046951,112.835922 125.406631,111.937355 126.673607,110.806190   C128.739670,115.574097 130.870560,120.315178 132.857208,125.115944   C136.166702,133.113434 139.020798,141.324387 142.775864,149.103088   C145.030014,153.772675 148.130249,158.273712 151.725983,162.007019   C159.801437,170.391449 168.391220,178.283371 176.840042,186.303741   C179.715622,189.033493 182.796127,191.547409 186.627914,194.898956   C188.494873,190.596252 190.525299,187.018082 191.637741,183.174240   C198.870956,158.180908 195.122803,135.100006 178.951096,114.414085   C176.502289,111.281738 176.023636,109.011108 179.366791,106.044411   C184.342911,101.628616 188.944885,96.776657 193.543121,91.954895   C196.379654,88.980461 198.511688,88.322578 201.614868,91.956848   C214.851837,107.459236 222.886444,125.323799 225.837677,145.353653   C229.216690,168.286804 225.399231,190.205414 214.162537,210.504440   C197.289825,240.984909 171.463364,259.890289 137.018570,264.571594   C107.084183,268.639923 78.738075,262.413879 55.100887,242.250122   C31.047667,221.731461 17.571796,195.985825 16.796545,163.604828   C16.178141,137.775040 23.389462,115.077385 39.120766,94.872162   C40.913910,92.569054 43.104717,90.575562 45.383511,88.148407   C52.455280,95.175957 59.135250,101.643852 65.523209,108.388321   C66.279877,109.187218 66.077400,112.037582 65.242020,113.030090   C52.484173,128.187698 47.018047,145.739685 48.075256,165.320724   C48.632698,175.645279 51.156071,185.538651 56.798508,194.850128   C58.153713,193.856796 59.144684,193.287125 59.945740,192.519318   C69.076965,183.767227 77.886436,174.651627 87.378906,166.312790   C95.429001,159.241028 100.313492,150.558014 104.002724,140.753189   C107.791542,130.683716 112.194855,120.845436 116.329254,110.905975   C116.760696,110.962265 117.192139,111.018555 117.623573,111.074844   C117.748886,112.765091 117.980949,114.455200 117.983192,116.145622   C118.008774,135.473221 117.921989,154.801468 118.065468,174.128036   C118.093674,177.926941 116.982216,180.739563 114.221802,183.363708   C103.244026,193.799362 92.456879,204.435349 81.514656,214.908890   C80.208916,216.158707 78.385284,216.867447 76.141869,218.226822   C87.406059,227.081680 98.370811,231.326782 110.759682,233.428650  z" data-index="1" style="visibility: visible; opacity: 1;"/>
<path fill="#EC661B" opacity="1.000000" stroke="none" d=" M216.694336,97.366425   C213.180862,92.758881 209.981705,88.362053 206.504974,84.196915   C204.734848,82.076302 204.770493,80.597351 206.737000,78.699936   C209.247192,76.277901 211.515381,73.605057 214.104279,70.806412   C222.400177,78.192665 228.216629,86.710869 233.297318,95.756851   C235.951965,100.483398 238.416382,105.341324 240.586243,110.306198   C241.837708,113.169693 243.469070,114.104500 246.575562,114.072662   C262.397675,113.910500 278.222870,114.075928 294.045837,113.963936   C301.238159,113.913025 305.303192,117.159340 305.161041,124.942207   C304.723053,148.919693 305.006317,172.910263 304.997833,196.895752   C304.995575,203.347702 301.453979,206.966797 294.965942,206.985931   C279.641998,207.031097 264.305145,207.360504 249.000229,206.819275   C243.125336,206.611542 240.946014,209.183762 239.034348,213.888916   C233.762817,226.863739 226.016388,238.270493 216.194885,248.259064   C215.967834,248.489944 215.645554,248.627197 213.857986,250.334702   C211.297440,247.108765 208.476532,244.043655 206.327179,240.563736   C205.637894,239.447754 206.118271,236.699097 207.087814,235.605865   C220.749451,220.201309 229.437744,202.413986 233.399612,182.243027   C237.911804,159.270309 235.556580,137.023056 226.179443,115.607681   C223.484940,109.454002 220.010590,103.641777 216.694336,97.366425  M258.439087,167.939041   C251.643311,173.672302 245.464172,179.682022 248.692871,189.949905   C249.068771,190.047623 249.544022,190.277695 250.020020,190.279266   C260.998505,190.315445 271.977081,190.358368 282.955505,190.332382   C291.213257,190.312836 294.224243,186.598022 292.684021,177.705429   C283.657227,177.705429 274.501831,177.705429 264.196930,177.705429   C272.374817,169.970657 279.553314,163.065109 286.864746,156.303314   C292.473633,151.116074 292.545654,144.869247 291.035400,137.161880   C279.924255,147.651382 269.436737,157.552155 258.439087,167.939041  M281.433990,137.912674   C283.451691,136.521469 285.469360,135.130264 287.487061,133.739059   C287.069458,133.080872 286.651886,132.422684 286.234283,131.764481   C284.381104,131.456802 282.531860,130.914810 280.674042,130.883606   C274.038452,130.772125 267.395477,130.980438 260.764191,130.777115   C256.572052,130.648560 253.300018,132.374573 251.967224,135.978439   C250.379059,140.272797 249.886719,144.972397 248.867798,149.738831   C254.057373,149.738831 257.806061,149.738831 261.667236,149.738831   C261.925415,147.396637 262.151642,145.344360 262.379669,143.275696   C268.923279,142.137894 276.309784,145.434387 281.433990,137.912674  z" data-index="2" style="visibility: visible; opacity: 1;"/>
<path fill="#343F49" opacity="1.000000" stroke="none" d=" M187.744171,87.755905   C182.568817,92.972130 177.543640,97.849396 172.763367,102.955933   C170.949966,104.893112 169.664215,104.856331 167.758224,103.255699   C141.512756,81.214920 102.082321,81.291428 75.582458,102.978958   C73.571098,104.625046 72.257126,105.109169 70.194511,102.910889   C64.838364,97.202431 59.294876,91.661537 53.656883,86.229454   C51.134464,83.799156 51.047535,81.994926 53.838722,79.779945   C72.925079,64.633682 94.077278,56.173946 118.965431,55.716217   C144.108917,55.253792 166.156128,62.237617 186.080780,77.050255   C186.614838,77.447289 187.167603,77.822868 187.673920,78.252876   C192.530945,82.377884 192.544418,82.846306 187.744171,87.755905  z" data-index="3" style="visibility: visible; opacity: 1;"/>
<path fill="#FEFBFA" opacity="1.000000" stroke="none" d=" M258.694153,167.695984   C269.436737,157.552155 279.924255,147.651382 291.035400,137.161880   C292.545654,144.869247 292.473633,151.116074 286.864746,156.303314   C279.553314,163.065109 272.374817,169.970657 264.196930,177.705429   C274.501831,177.705429 283.657227,177.705429 292.684021,177.705429   C294.224243,186.598022 291.213257,190.312836 282.955505,190.332382   C271.977081,190.358368 260.998505,190.315445 250.020020,190.279266   C249.544022,190.277695 249.068771,190.047623 248.692871,189.949905   C245.464172,179.682022 251.643311,173.672302 258.694153,167.695984  z" data-index="4" style="visibility: visible; opacity: 1;"/>
<path fill="#FEFBFA" opacity="1.000000" stroke="none" d=" M281.168274,138.167358   C276.309784,145.434387 268.923279,142.137894 262.379669,143.275696   C262.151642,145.344360 261.925415,147.396637 261.667236,149.738831   C257.806061,149.738831 254.057373,149.738831 248.867798,149.738831   C249.886719,144.972397 250.379059,140.272797 251.967224,135.978439   C253.300018,132.374573 256.572052,130.648560 260.764191,130.777115   C267.395477,130.980438 274.038452,130.772125 280.674042,130.883606   C282.531860,130.914810 284.381104,131.456802 286.234283,131.764481   C286.651886,132.422684 287.069458,133.080872 287.487061,133.739059   C285.469360,135.130264 283.451691,136.521469 281.168274,138.167358  z" data-index="5" style="visibility: visible; opacity: 1;"/>
</svg>