<svg xmlns="http://www.w3.org/2000/svg" xmlns:xlink="http://www.w3.org/1999/xlink" version="1.1" id="Layer_1" x="0px" y="0px" enable-background="new 0 0 3840 2160" xml:space="preserve" viewBox="1401.72 38.17 1044.18 2086.38">

<path fill="#000000" opacity="1.000000" stroke="none" d=" M2230.000000,654.202026   C2159.077393,654.202209 2089.155029,654.202209 2017.798340,654.202209   C2017.798340,649.387390 2017.798340,645.515747 2017.798340,641.644043   C2017.798340,584.979553 2017.603149,528.314026 2017.921265,471.651337   C2018.012817,455.365112 2010.939941,443.799622 1998.063232,434.821442   C1985.985229,426.400055 1972.190308,422.599121 1958.046509,420.338409   C1932.234863,416.212738 1906.346680,416.546387 1880.736084,422.053680   C1865.610352,425.306366 1851.442017,430.899414 1840.307495,442.381500   C1833.273438,449.635193 1829.646973,457.826813 1829.668701,468.299683   C1829.887207,573.295166 1829.801025,678.291260 1829.800903,783.287170   C1829.800903,786.550476 1829.801025,789.813782 1829.801025,794.029785   C1833.710327,792.838684 1836.581787,792.213623 1839.256592,791.111633   C1882.221558,773.409912 1926.838501,762.072571 1972.815186,755.585754   C1994.214233,752.566650 2015.575684,749.921631 2037.226929,749.717773   C2052.169922,749.577087 2067.143799,747.795471 2082.038086,748.393494   C2111.540039,749.578064 2141.000732,751.843384 2170.471191,753.771240   C2202.068604,755.838379 2233.036621,761.702881 2263.542725,769.971863   C2309.739990,782.494080 2350.393311,804.613831 2384.084473,839.185669   C2402.772949,858.362366 2420.341309,878.121765 2431.622559,902.792236   C2438.476074,917.779358 2443.056152,933.331787 2444.112305,949.738831   C2445.072266,964.650269 2445.727051,979.610657 2445.732910,994.549744   C2445.828613,1247.206543 2446.150146,1499.864258 2445.532715,1752.519653   C2445.394775,1808.927979 2434.184082,1863.469482 2407.222412,1913.923950   C2388.464111,1949.027100 2363.613770,1979.098999 2333.133301,2004.578857   C2278.211914,2050.489990 2214.370117,2078.561279 2146.206543,2098.013184   C2114.198486,2107.147217 2081.534668,2113.126953 2048.623535,2117.515381   C2029.566895,2120.056396 2010.251099,2120.621094 1991.064087,2122.221924   C1947.169556,2125.884521 1903.200317,2124.324463 1859.280884,2123.553223   C1837.112183,2123.163818 1814.922607,2120.731934 1792.864014,2118.174805   C1768.821899,2115.387939 1744.752808,2112.266846 1720.991943,2107.736572   C1666.457764,2097.338623 1614.095947,2080.238281 1565.201538,2053.500244   C1540.884644,2040.202271 1518.490723,2024.260132 1497.947876,2005.489380   C1473.070068,1982.757812 1453.130371,1956.395508 1437.637573,1926.710205   C1423.081299,1898.819336 1413.793091,1868.995117 1408.196045,1838.057739   C1403.690430,1813.153442 1401.717896,1788.053711 1401.723755,1762.705933   C1401.826782,1316.389893 1401.779907,870.073914 1401.827759,423.757904   C1401.832397,380.595245 1408.197021,338.292755 1421.514404,297.238434   C1440.413208,238.977982 1472.119995,188.786407 1518.762207,148.725174   C1549.358032,122.446175 1584.061768,102.942741 1622.174805,89.562065   C1677.841431,70.018555 1734.806274,55.687428 1793.280640,47.831680   C1818.904175,44.389290 1844.672607,41.318382 1870.471680,40.063568   C1904.346436,38.415970 1938.345215,37.651520 1972.235840,38.558491   C1996.691650,39.212975 2021.059204,43.200848 2045.463989,45.722382   C2081.564697,49.452343 2116.954834,57.101040 2151.994141,66.172714   C2189.036133,75.762848 2225.782227,86.671989 2260.312500,103.469925   C2291.573730,118.677498 2320.189209,137.880142 2345.538330,162.032730   C2383.240723,197.955124 2409.943604,240.674759 2426.602539,289.749725   C2434.192627,312.108978 2439.182373,335.146606 2442.255127,358.620117   C2445.501953,383.422028 2445.900879,408.298950 2445.850342,433.248047   C2445.709229,502.578400 2445.801514,571.909241 2445.801514,641.239868   C2445.801514,645.156006 2445.801270,649.072144 2445.801270,654.201843   C2373.427734,654.201843 2302.213867,654.201843 2230.000000,654.202026  M1723.955566,1133.848022   C1724.188477,1140.134277 1722.649780,1147.186157 1724.975586,1152.568115   C1733.025635,1171.197144 1733.471069,1190.809204 1733.498657,1210.274902   C1733.769653,1401.577759 1733.638916,1592.881104 1733.695923,1784.184326   C1733.701904,1804.553589 1733.028809,1824.550903 1722.933472,1843.229980   C1718.282715,1851.835327 1720.788818,1858.086792 1728.656982,1863.852173   C1736.697021,1869.743652 1744.825317,1875.520020 1753.030396,1881.179688   C1761.301147,1886.884521 1770.281128,1889.475098 1780.345337,1886.753784   C1781.918091,1886.328491 1783.662598,1886.586914 1785.291016,1886.311890   C1810.111328,1882.121338 1834.972778,1878.148438 1859.713867,1873.530518   C1867.774170,1872.026001 1873.217529,1866.487671 1874.744873,1858.069092   C1875.570190,1853.519653 1876.224854,1848.869385 1876.253784,1844.260132   C1876.312378,1834.947876 1875.703979,1825.632690 1875.697876,1816.318604   C1875.646118,1737.664307 1875.623291,1659.010010 1875.716675,1580.355713   C1875.730835,1568.410034 1876.381592,1556.470337 1879.903320,1544.895874   C1886.589355,1522.922119 1904.615112,1508.526245 1925.552368,1508.199829   C1932.131470,1508.097290 1938.766479,1506.984497 1945.243530,1505.678101   C1986.401733,1497.377075 2018.288452,1458.275269 2018.331543,1416.238647   C2018.364380,1384.243652 2018.325195,1352.248657 2018.359497,1320.253662   C2018.362549,1317.348267 2018.668091,1314.443115 2018.840088,1311.415039   C2020.615967,1310.875977 2021.831299,1310.428345 2023.083252,1310.138672   C2049.258545,1304.082275 2075.437256,1298.040894 2101.616943,1292.002441   C2130.377686,1285.368774 2159.159668,1278.825317 2187.892090,1272.070679   C2200.278564,1269.158569 2206.926514,1261.093262 2207.711670,1248.262573   C2208.521973,1235.014404 2209.533203,1221.747925 2209.547363,1208.488647   C2209.567139,1189.883789 2208.922607,1171.271362 2208.206055,1152.675781   C2207.887695,1144.415039 2207.298584,1136.076782 2205.800293,1127.964355   C2199.046387,1091.396240 2178.699219,1077.885132 2146.150635,1080.724854   C2131.454834,1082.006958 2116.857666,1086.390381 2102.641846,1090.754272   C2080.122803,1097.667358 2058.041016,1105.991211 2035.629150,1113.271606   C2005.954712,1122.911621 1976.065918,1131.893433 1946.421509,1141.622314   C1933.719360,1145.791138 1923.159058,1142.737793 1914.944702,1133.171143   C1907.637573,1124.661133 1901.501831,1115.105591 1895.252197,1105.742432   C1891.574951,1100.233154 1888.946777,1094.030273 1885.364990,1088.448608   C1881.772339,1082.849731 1876.916748,1079.472900 1869.538940,1080.296997   C1856.720459,1081.728638 1843.819336,1082.403320 1830.984131,1083.705078   C1805.623535,1086.277344 1780.275635,1088.981079 1754.942139,1091.807251   C1747.645142,1092.621460 1742.133301,1096.614990 1737.593994,1102.405396   C1730.659912,1111.250366 1726.834595,1121.377808 1723.955566,1133.848022  z" data-index="1" style="visibility: visible; opacity: 1;"/>

<path fill="#030303" opacity="1.000000" stroke="none" d=" M1963.698975,1329.656982   C1965.446899,1329.119873 1966.360352,1328.686768 1967.322510,1328.471436   C1967.937622,1328.333740 1968.624756,1328.518311 1969.945679,1328.599121   C1970.077148,1331.433472 1970.324585,1334.333008 1970.328369,1337.232788   C1970.359619,1361.507935 1969.861084,1385.795288 1970.473389,1410.055054   C1971.183228,1438.187988 1948.723511,1460.902588 1920.199097,1459.780762   C1905.989136,1459.221924 1891.738892,1459.683472 1876.919434,1459.683472   C1876.919434,1424.801270 1876.919434,1390.698608 1876.919434,1355.505981   C1905.268311,1347.046387 1934.076660,1338.449707 1963.698975,1329.656982  z" data-index="3" style="visibility: visible; opacity: 1;"/>
</svg>